# xmcd
#
# Track frame offsets:
#	182
#	16865
#	33205
#
# Disc length: 666 seconds
#
# Revision: 0
# Processed by: cddbd v1.5.2PL0 Copyright (c) Steve Scherf et al.
# Submitted via: audiograbber 1.83.01
#
DISCID=14029803
DTITLE=Jenny Elvers - Ich Verzeih dir
DYEAR=2000
DGENRE=R&B
TTITLE0=Ich Verzeih dir (Radio Version)
TTITLE1=Ich Verzeih dir (Instromental)
TTITLE2=Ich Verzeih dir (Smooth Mix)
EXTD=
EXTT0=
EXTT1=
EXTT2=
PLAYORDER=
